HIERARCHY
ROOT Hips
{
	OFFSET -0.001795 -0.223333 0.028219
	CHANNELS 6 Xposition Yposition Zposition Zrotation Yrotation Xrotation 
	JOINT LeftUpLeg
	{
		OFFSET 0.069520 -0.091406 -0.006815
		CHANNELS 3 Zrotation Yrotation Xrotation
		JOINT LeftLeg
		{
			OFFSET 0.034277 -0.375199 -0.004496
			CHANNELS 3 Zrotation Yrotation Xrotation
			JOINT LeftFoot
			{
				OFFSET -0.013596 -0.397961 -0.043693
				CHANNELS 3 Zrotation Yrotation Xrotation
				JOINT LeftToe
				{
					OFFSET 0.026358 -0.055791 0.119288
					CHANNELS 3 Zrotation Yrotation Xrotation
					End Site
					{
						OFFSET 0.000000 0.000000 0.000000
					}
				}
			}
		}
	}
	JOINT RightUpLeg
	{
		OFFSET -0.067670 -0.090522 -0.004320
		CHANNELS 3 Zrotation Yrotation Xrotation
		JOINT RightLeg
		{
			OFFSET -0.038290 -0.382569 -0.008850
			CHANNELS 3 Zrotation Yrotation Xrotation
			JOINT RightFoot
			{
				OFFSET 0.015774 -0.398415 -0.042312
				CHANNELS 3 Zrotation Yrotation Xrotation
				JOINT RightToe
				{
					OFFSET -0.025372 -0.048144 0.123348
					CHANNELS 3 Zrotation Yrotation Xrotation
					End Site
					{
						OFFSET 0.000000 0.000000 0.000000
					}
				}
			}
		}
	}
	JOINT Spine
	{
		OFFSET -0.002533 0.108963 -0.026696
		CHANNELS 3 Zrotation Yrotation Xrotation
		JOINT Spine1
		{
			OFFSET 0.005487 0.135180 0.001092
			CHANNELS 3 Zrotation Yrotation Xrotation
			JOINT Spine2
			{
				OFFSET 0.001457 0.052922 0.025425
				CHANNELS 3 Zrotation Yrotation Xrotation
				JOINT Neck
				{
					OFFSET -0.002778 0.213870 -0.042857
					CHANNELS 3 Zrotation Yrotation Xrotation
					JOINT Head
					{
						OFFSET 0.005152 0.064970 0.051349
						CHANNELS 3 Zrotation Yrotation Xrotation
						End Site
						{
							OFFSET 0.000000 0.000000 0.000000
						}
					}
				}
				JOINT LeftShoulder
				{
					OFFSET 0.078845 0.121749 -0.034090
					CHANNELS 3 Zrotation Yrotation Xrotation
					JOINT LeftArm
					{
						OFFSET 0.090977 0.030469 -0.008868
						CHANNELS 3 Zrotation Yrotation Xrotation
						JOINT LeftForeArm
						{
							OFFSET 0.259612 -0.012772 -0.027456
							CHANNELS 3 Zrotation Yrotation Xrotation
							JOINT LeftHand
							{
								OFFSET 0.249234 0.008986 -0.001171
								CHANNELS 3 Zrotation Yrotation Xrotation
								End Site
								{
									OFFSET 0.000000 0.000000 0.000000
								}
							}
						}
					}
				}
				JOINT RightShoulder
				{
					OFFSET -0.081759 0.118833 -0.038615
					CHANNELS 3 Zrotation Yrotation Xrotation
					JOINT RightArm
					{
						OFFSET -0.096012 0.032551 -0.009143
						CHANNELS 3 Zrotation Yrotation Xrotation
						JOINT RightForeArm
						{
							OFFSET -0.253742 -0.013329 -0.021401
							CHANNELS 3 Zrotation Yrotation Xrotation
							JOINT RightHand
							{
								OFFSET -0.255298 0.007772 -0.005559
								CHANNELS 3 Zrotation Yrotation Xrotation
								End Site
								{
									OFFSET 0.000000 0.000000 0.000000
								}
							}
						}
					}
				}
			}
		}
	}
}
MOTION
Frames: 13
Frame Time: 0.050000
-0.076373 0.943125 -0.029795 3.208306 0.522583 15.867977 7.651739 -0.962930 -23.069684 -3.884341 0.412160 12.106806 1.648829 6.728173 9.540256 0.000000 0.000000 0.000000 -8.201424 1.066604 -21.315018 -1.942182 0.460228 4.762471 -0.942315 -6.003952 9.822494 0.000000 0.000000 0.000000 5.702881 -0.857206 5.214782 2.239654 -0.733254 -5.613437 -9.111508 4.435473 5.990967 15.640003 -9.106047 -11.357487 0.000000 0.000000 0.000000 -5.531980 -13.801830 4.410516 -49.679734 -45.448795 13.351334 49.984726 -57.526057 -26.869436 0.000000 0.000000 0.000000 7.644104 -0.824171 -0.381209 64.354100 41.928921 19.881769 -108.149305 41.385542 -44.082963 0.000000 0.000000 0.000000 
-0.076959 0.943799 -0.027451 3.199937 0.810496 15.688524 7.521451 -0.982006 -22.536954 -3.622438 0.349220 12.023538 1.469574 6.479423 9.672115 0.000000 0.000000 0.000000 -8.259308 1.027821 -20.686583 -2.111999 0.460934 4.348536 -0.901325 -6.028609 10.320144 0.000000 0.000000 0.000000 5.758878 -0.780283 4.337825 2.277824 -0.768655 -5.168941 -8.849562 3.182434 5.874494 15.112575 -8.953380 -10.838480 0.000000 0.000000 0.000000 -4.712937 -11.809865 3.771123 -50.209180 -44.951886 13.399333 56.829729 -59.512273 -32.101689 0.000000 0.000000 0.000000 7.187280 -2.404763 -1.180525 67.502655 39.692611 19.535711 -113.792398 43.294677 -51.702390 0.000000 0.000000 0.000000 
-0.077759 0.944485 -0.024298 3.124656 0.855383 15.116765 7.495613 -0.945015 -21.250029 -3.203275 0.262259 11.704954 1.264891 6.068439 9.498982 0.000000 0.000000 0.000000 -7.958417 1.023604 -19.438692 -2.575188 0.491919 3.787204 -0.679148 -5.532581 10.173523 0.000000 0.000000 0.000000 6.111840 -0.723500 3.482208 1.891853 -0.609600 -5.308571 -8.477424 2.795370 6.080201 14.654862 -9.059951 -9.520795 0.000000 0.000000 0.000000 -3.559923 -9.830881 3.101842 -51.514145 -44.635976 13.688318 66.150969 -61.874364 -40.030021 0.000000 0.000000 0.000000 6.201034 -4.410444 -2.024313 71.016721 37.209368 19.148210 -118.260617 45.549591 -59.075832 0.000000 0.000000 0.000000 
-0.078413 0.944661 -0.021567 3.073738 1.001180 14.606674 7.484014 -0.915885 -20.190695 -3.028033 0.223228 11.614043 1.156219 5.894207 9.519449 0.000000 0.000000 0.000000 -7.736638 1.006697 -18.449680 -2.796249 0.494606 3.342608 -0.918909 -5.997101 10.165083 0.000000 0.000000 0.000000 6.289434 -0.621847 2.381051 1.623912 -0.528162 -4.736750 -7.882099 2.600590 5.834987 14.212662 -8.711771 -9.685037 0.000000 0.000000 0.000000 -2.493269 -7.244288 2.221188 -53.265341 -44.200274 14.073569 76.572817 -63.950891 -49.583791 0.000000 0.000000 0.000000 5.129618 -6.247042 -2.718840 73.469803 34.875218 18.406661 -122.322542 46.986960 -65.404747 0.000000 0.000000 0.000000 
-0.078853 0.944651 -0.019977 3.033119 0.998622 13.883794 7.429360 -0.876085 -18.946381 -2.695938 0.160062 11.123491 1.049052 5.638003 9.309761 0.000000 0.000000 0.000000 -7.648187 0.970703 -17.263996 -2.675327 0.472477 3.227463 -0.864582 -5.835539 9.984172 0.000000 0.000000 0.000000 6.571100 -0.557973 1.679016 1.423961 -0.432578 -5.118718 -7.459141 2.920855 6.050040 13.984919 -8.628799 -9.470513 0.000000 0.000000 0.000000 -1.596324 -5.739506 1.745138 -54.215662 -43.219223 13.771843 87.735638 -65.038007 -59.989941 0.000000 0.000000 0.000000 4.585357 -7.424491 -3.133752 75.072565 32.904912 17.566415 -126.159703 49.346191 -72.760195 0.000000 0.000000 0.000000 
-0.078822 0.944527 -0.019671 3.028756 0.574727 13.649393 7.309502 -0.857614 -18.473814 -2.806970 0.192489 11.089086 1.194070 5.788696 9.113067 0.000000 0.000000 0.000000 -7.599436 0.990133 -17.322184 -2.653563 0.499865 3.726671 -1.032537 -6.148329 9.701554 0.000000 0.000000 0.000000 6.805231 -0.496827 0.952764 1.093641 -0.317157 -4.762787 -6.785045 3.521030 5.984549 13.849241 -8.398282 -9.937176 0.000000 0.000000 0.000000 -0.929395 -4.028745 1.207141 -55.720359 -41.878573 13.462363 98.134124 -65.692320 -70.200458 0.000000 0.000000 0.000000 3.542276 -8.235382 -3.337498 76.398802 32.274599 17.700130 -128.817535 51.409730 -78.639231 0.000000 0.000000 0.000000 
-0.078147 0.944498 -0.020267 3.323621 0.386000 13.395690 6.989216 -0.881958 -18.380747 -2.868702 0.207670 11.170331 1.441730 6.154236 8.929166 0.000000 0.000000 0.000000 -7.907200 0.958733 -17.210145 -2.730072 0.529955 4.045438 -1.082421 -6.109170 9.158618 0.000000 0.000000 0.000000 7.055865 -0.473898 0.632275 0.812075 -0.216802 -4.399688 -6.598330 4.099930 5.841508 13.838517 -8.378573 -9.893436 0.000000 0.000000 0.000000 -0.915847 -3.020928 0.852368 -55.967478 -40.555021 12.733432 103.383048 -66.121831 -75.972566 0.000000 0.000000 0.000000 2.773263 -8.399825 -3.308524 76.873720 32.149759 17.972944 -129.778086 52.589430 -81.208558 0.000000 0.000000 0.000000 
-0.076983 0.944452 -0.021569 3.662313 0.061635 13.113446 6.529154 -0.917636 -18.310476 -3.028319 0.247386 11.079991 1.598394 6.466749 9.154347 0.000000 0.000000 0.000000 -8.370984 0.923983 -17.321860 -2.719062 0.569690 4.706267 -1.135398 -6.088010 8.617580 0.000000 0.000000 0.000000 6.966636 -0.453224 0.559483 0.923928 -0.274567 -4.153431 -6.678015 5.082107 5.510935 14.711331 -8.842198 -10.236447 0.000000 0.000000 0.000000 -1.076436 -2.608349 0.668318 -56.438411 -38.880506 11.833189 105.657226 -67.704982 -80.436079 0.000000 0.000000 0.000000 2.340850 -8.626518 -3.339887 77.150380 31.994664 18.289437 -128.856839 53.858487 -81.366618 0.000000 0.000000 0.000000 
-0.075656 0.944747 -0.023269 4.095975 -0.026470 13.066878 6.042912 -0.982711 -18.610381 -3.222165 0.287959 11.087970 1.732093 6.792157 9.495228 0.000000 0.000000 0.000000 -8.877873 0.881757 -17.553363 -2.823700 0.604299 5.019760 -1.261905 -6.313990 8.477107 0.000000 0.000000 0.000000 7.008706 -0.451004 0.521691 0.966645 -0.294799 -4.101600 -6.937751 5.514897 5.555455 15.376770 -9.182142 -10.614420 0.000000 0.000000 0.000000 -1.585121 -2.589423 0.578508 -57.008090 -38.188172 11.554098 102.053684 -69.031652 -78.449912 0.000000 0.000000 0.000000 1.997076 -8.076385 -3.090915 76.558086 32.549935 18.658748 -123.907806 54.026330 -75.604891 0.000000 0.000000 0.000000 
-0.074756 0.945099 -0.025037 4.219750 -0.132987 12.966005 5.869544 -1.003759 -18.755524 -3.274324 0.300526 11.053313 1.523526 6.544712 9.933796 0.000000 0.000000 0.000000 -9.093799 0.859434 -17.430297 -2.541434 0.571235 5.144785 -1.238248 -6.193011 8.211529 0.000000 0.000000 0.000000 7.170685 -0.436498 0.322642 1.207620 -0.405318 -3.868902 -7.548925 5.789020 5.083309 16.324354 -10.000533 -10.032551 0.000000 0.000000 0.000000 -2.343070 -3.297208 0.701549 -56.359600 -37.751859 11.177348 95.405799 -69.616123 -72.859262 0.000000 0.000000 0.000000 2.050845 -7.764564 -2.971371 76.115116 32.651134 18.715308 -118.316209 53.888530 -69.350893 0.000000 0.000000 0.000000 
-0.074569 0.945633 -0.026511 4.259398 -0.035935 12.960068 5.564882 -1.046317 -18.836234 -3.067742 0.256304 10.974762 1.583669 6.699793 10.075732 0.000000 0.000000 0.000000 -9.100385 0.854074 -17.412199 -2.367422 0.545393 5.138088 -1.334408 -6.533520 8.711553 0.000000 0.000000 0.000000 7.000638 -0.392402 -0.013658 1.596952 -0.578756 -3.606324 -7.635954 5.389578 4.922874 16.796611 -10.379940 -9.935230 0.000000 0.000000 0.000000 -2.709376 -3.575162 0.762148 -55.994765 -37.352538 10.963112 89.512328 -69.831976 -67.445238 0.000000 0.000000 0.000000 2.124644 -7.914892 -3.038524 75.966437 32.884853 18.751921 -113.077476 53.145105 -63.454300 0.000000 0.000000 0.000000 
-0.075006 0.946312 -0.027605 4.130746 0.146981 12.746509 5.790374 -1.018981 -18.737511 -3.074998 0.254024 11.000295 1.479002 6.634825 10.432184 0.000000 0.000000 0.000000 -8.921204 0.850618 -16.903535 -2.318133 0.504427 4.560197 -1.306604 -6.636380 9.322086 0.000000 0.000000 0.000000 7.083369 -0.363372 -0.304469 1.699461 -0.614505 -3.761238 -7.810736 4.582378 5.061212 17.089304 -10.806072 -9.409495 0.000000 0.000000 0.000000 -2.533026 -4.110537 1.008585 -54.999346 -37.663923 10.958073 82.419035 -68.928556 -59.898496 0.000000 0.000000 0.000000 2.315460 -7.784355 -3.012265 75.582682 32.961319 18.403304 -107.318697 51.544711 -56.616292 0.000000 0.000000 0.000000 
-0.075673 0.946670 -0.028542 3.834200 -0.160883 12.729675 6.123249 -0.952270 -18.313234 -3.130198 0.275382 10.426787 1.757681 7.139006 10.693836 0.000000 0.000000 0.000000 -8.425697 0.909778 -16.923445 -2.402987 0.497433 4.245074 -1.143420 -6.481212 9.778192 0.000000 0.000000 0.000000 6.898681 -0.349848 -0.321359 1.735721 -0.629031 -3.832272 -7.558731 3.978848 4.996488 17.147461 -10.815789 -9.572530 0.000000 0.000000 0.000000 -1.964172 -3.957704 1.054835 -54.388815 -38.079247 11.122572 77.727762 -68.101146 -54.780872 0.000000 0.000000 0.000000 2.020838 -8.482620 -3.256310 75.609817 32.813261 18.079694 -104.754067 50.125523 -53.236900 0.000000 0.000000 0.000000 
